<svg width="1440" height="284" viewBox="0 0 1440 284" fill="none" xmlns="http://www.w3.org/2000/svg">
<path d="M987.805 100.39C1141.58 131.182 1293.97 128.528 1449.38 110.998C1448.3 82.5184 1492.82 111.053 1507.13 115.378C1539.82 125.258 1547.47 149.68 1551.07 180.518C1553.63 202.414 1540.51 228.719 1527.54 245.507C1501.36 279.394 1454.85 312.985 1416.66 331.735C1375.49 351.944 1332.83 365.317 1289.37 378.944L1288.46 379.228C1242 393.797 1193.85 398.403 1147.83 415.282C1076.28 441.525 1009.55 476.187 936.466 498.821C866.523 520.482 795.692 538.917 725.24 558.818C614.394 590.13 493.304 618.551 377.004 616.173C298.632 614.57 222.577 615.435 144.521 607.244C92.9472 601.832 21.9031 611.151 -21.4879 574.911C-32.2746 565.902 -332.528 628.875 -334.233 615.858C-338.261 585.092 -142.825 494.643 -139.097 463.714C-135.957 437.668 -10.358 399.41 4.544 379.079C29.9532 344.412 48.7595 320.686 91.9789 315.36C130.752 310.582 169.094 314.255 207.558 304.311C234.232 297.415 258.178 282.532 284.217 273.856C333.486 257.438 393.836 262.252 444.602 262.005C483.167 261.817 518.106 262.211 556.3 269.269C596.461 276.69 639.028 275.741 676.047 256.858C735.192 226.688 760.653 156.733 809.084 112.355C855.496 69.8266 933.05 89.426 987.805 100.39Z" fill="#B19AF4"/>
<path d="M1460.67 109.7C1301.34 128.38 1145.3 131.927 987.805 100.39C933.051 89.426 855.496 69.8266 809.084 112.355C760.653 156.733 735.192 226.688 676.047 256.858C639.028 275.741 596.461 276.69 556.3 269.269C518.106 262.211 483.167 261.817 444.602 262.005C393.836 262.252 333.486 257.438 284.217 273.856C258.178 282.532 234.232 297.415 207.558 304.311C169.094 314.255 130.752 310.582 91.979 315.36C48.7594 320.686 29.9532 344.412 4.54399 379.079C-10.358 399.41 -135.957 437.668 -139.097 463.714C-142.825 494.643 -338.261 585.092 -334.233 615.858C-332.528 628.875 -32.2746 565.902 -21.4879 574.911C21.9031 611.151 92.9471 601.832 144.521 607.244C222.577 615.435 298.632 614.57 377.004 616.173C493.304 618.551 614.394 590.13 725.24 558.818C795.692 538.917 866.523 520.482 936.466 498.821C1009.55 476.187 1076.28 441.525 1147.83 415.282C1193.85 398.403 1242 393.797 1288.46 379.228C1332.24 365.503 1375.2 352.085 1416.66 331.735C1454.85 312.985 1501.36 279.394 1527.54 245.507C1540.51 228.719 1553.63 202.414 1551.07 180.518C1547.47 149.68 1539.82 125.258 1507.13 115.378C1492.33 110.907 1445.26 80.5629 1449.65 114.082" stroke="black" stroke-linecap="round" stroke-linejoin="round"/>
</svg>
