<svg width="1052" height="181" viewBox="0 0 1052 181" fill="none" xmlns="http://www.w3.org/2000/svg">
<path d="M111.742 99.6328V100.453C111.742 100.688 111.703 100.922 111.625 101.156C110.766 102.797 109.711 104.047 108.461 104.906C107.211 105.766 105.648 106.195 103.773 106.195C102.523 106.195 101.586 106.078 100.961 105.844C100.414 105.609 99.6719 105.18 98.7344 104.555C97.3281 104.711 95.7266 104.867 93.9297 105.023C92.1328 105.102 90.3359 105.297 88.5391 105.609C86.7422 105.844 85.0234 106.195 83.3828 106.664C81.8203 107.133 80.4922 107.836 79.3984 108.773C78.6953 114.164 78.3047 119.555 78.2266 124.945C78.2266 130.258 78.1484 135.609 77.9922 141C78.6172 142.641 79.0469 144.438 79.2812 146.391C79.5156 148.422 79.6719 150.258 79.75 151.898C80.2969 152.836 80.7266 153.773 81.0391 154.711C81.3516 155.727 81.6641 156.742 81.9766 157.758C82.2891 158.773 82.6406 159.75 83.0312 160.688C83.5 161.625 84.0859 162.484 84.7891 163.266C85.4141 163.266 85.9609 163.305 86.4297 163.383C86.9766 163.539 87.5234 163.695 88.0703 163.852V164.555C88.0703 165.727 88.4219 166.586 89.125 167.133C89.8281 167.68 90.6094 168.266 91.4688 168.891C91.7031 169.75 91.8203 170.57 91.8203 171.352C91.8203 172.68 91.5078 173.93 90.8828 175.102C90.3359 176.273 89.3984 177.094 88.0703 177.562C87.2891 177.562 86.5469 177.445 85.8438 177.211C85.1406 177.055 84.3984 176.977 83.6172 176.977C83.0703 176.977 82.4844 177.055 81.8594 177.211C81.4688 177.055 81.1172 176.82 80.8047 176.508C80.5703 176.273 80.2969 176.039 79.9844 175.805C79.6719 175.57 79.3203 175.375 78.9297 175.219C78.6172 175.062 78.1875 175.023 77.6406 175.102C77.25 174.008 76.625 172.992 75.7656 172.055C74.9062 171.117 73.8516 170.727 72.6016 170.883C72.6797 170.57 72.7188 170.102 72.7188 169.477C72.7188 168.383 72.4844 167.367 72.0156 166.43C71.625 165.492 71 164.75 70.1406 164.203C69.75 162.406 69.3984 160.414 69.0859 158.227C68.7734 156.117 68.1094 154.281 67.0938 152.719C67.0938 150.453 66.8594 148.266 66.3906 146.156C65.9219 144.125 65.4922 142.016 65.1016 139.828C65.4141 138.578 65.5703 137.172 65.5703 135.609C65.5703 134.516 65.5312 133.461 65.4531 132.445C65.375 131.352 65.3359 130.297 65.3359 129.281C65.3359 128.188 65.4141 127.133 65.5703 126.117C65.7266 125.023 66.1172 123.969 66.7422 122.953C66.2734 122.172 65.9609 121.391 65.8047 120.609C65.6484 119.75 65.5703 118.891 65.5703 118.031C65.5703 116.703 65.6484 115.414 65.8047 114.164L66.2734 110.414C66.1172 110.336 65.8438 110.297 65.4531 110.297C64.6719 110.297 64.0078 110.453 63.4609 110.766L61.7031 111.586C61.3125 111.508 60.9609 111.469 60.6484 111.469H59.5938C58.4219 111.469 57.25 111.664 56.0781 112.055C54.9844 112.367 54.0078 112.953 53.1484 113.812C50.4922 113.812 47.8359 114.086 45.1797 114.633C42.5234 115.102 39.8672 115.688 37.2109 116.391C34.6328 117.094 32.0547 117.875 29.4766 118.734C26.8984 119.516 24.3203 120.219 21.7422 120.844C21.1172 123.891 20.6484 126.977 20.3359 130.102C20.0234 133.148 19.8672 136.273 19.8672 139.477V142.289C19.8672 143.305 19.9453 144.281 20.1016 145.219C20.1797 145.844 20.375 146.391 20.6875 146.859C21.0781 147.406 21.2734 147.992 21.2734 148.617C21.2734 149.164 21.1562 149.594 20.9219 149.906C21.4688 150.844 22.2891 151.664 23.3828 152.367C24.5547 151.977 25.5703 151.781 26.4297 151.781C27.8359 151.781 29.1641 152.094 30.4141 152.719C31.6641 153.422 32.9922 153.891 34.3984 154.125C34.0859 155.219 33.6172 156.273 32.9922 157.289C32.3672 158.383 31.9766 159.555 31.8203 160.805C31.5078 160.961 31.1953 161.039 30.8828 161.039C30.6484 161.039 30.4141 161.039 30.1797 161.039C29.9453 161.117 29.75 161.273 29.5938 161.508C29.5156 161.742 29.5547 162.211 29.7109 162.914C28.6172 163.461 27.5234 163.812 26.4297 163.969C25.3359 164.203 24.2031 164.359 23.0312 164.438C21.9375 164.516 20.8047 164.555 19.6328 164.555C18.5391 164.555 17.4062 164.594 16.2344 164.672C16.2344 164.203 16.1172 163.812 15.8828 163.5C15.7266 163.266 15.4922 163.07 15.1797 162.914C14.8672 162.836 14.5156 162.719 14.125 162.562C13.8125 162.406 13.5391 162.211 13.3047 161.977C12.6797 161.43 12.1719 160.688 11.7812 159.75C11.4688 158.891 11.1172 157.953 10.7266 156.938C10.4141 156 10.0625 155.062 9.67188 154.125C9.28125 153.188 8.8125 152.328 8.26562 151.547C8.10938 149.828 7.99219 148.148 7.91406 146.508C7.83594 144.867 7.79688 143.188 7.79688 141.469C7.79688 138.266 7.91406 135.141 8.14844 132.094C8.38281 128.969 8.57812 125.766 8.73438 122.484C8.03125 121.781 7.21094 121.469 6.27344 121.547C5.41406 121.625 4.55469 121.547 3.69531 121.312C2.75781 120.141 1.97656 118.852 1.35156 117.445C0.726562 115.961 0.414062 114.438 0.414062 112.875C0.414062 112.094 0.53125 111.273 0.765625 110.414C1.46875 110.18 2.25 109.945 3.10938 109.711C3.96875 109.477 4.4375 108.852 4.51562 107.836C5.0625 108.148 5.72656 108.305 6.50781 108.305C7.28906 108.305 8.07031 108.188 8.85156 107.953C9.63281 107.719 10.4141 107.523 11.1953 107.367C11.5078 106.117 11.7422 104.906 11.8984 103.734C12.1328 102.484 12.1719 101.195 12.0156 99.8672C13.1094 98.2266 13.8125 96.4297 14.125 94.4766C14.5156 92.5234 14.7891 90.6484 14.9453 88.8516V87.2109C14.9453 86.6641 14.9844 86.1172 15.0625 85.5703C15.2188 84.7109 15.4531 83.7344 15.7656 82.6406C16.0781 81.5469 16.3516 80.5312 16.5859 79.5938C16.9766 78.1094 17.2109 76.7031 17.2891 75.375C17.4453 74.0469 17.5234 72.6797 17.5234 71.2734V70.8047C17.5234 70.4141 17.3672 70.1406 17.0547 69.9844C16.7422 69.75 16.5859 69.4375 16.5859 69.0469L16.7031 68.8125C17.0156 66.3125 17.3672 63.8516 17.7578 61.4297C18.2266 58.9297 18.8516 56.4688 19.6328 54.0469C19.0078 52.25 18.6953 50.2188 18.6953 47.9531C18.6953 44.9844 19.1641 42.1328 20.1016 39.3984C19.6328 38.1484 19.3984 36.9375 19.3984 35.7656C19.3984 34.8281 19.4375 33.8906 19.5156 32.9531C19.6719 32.0156 19.7109 31.0781 19.6328 30.1406C20.4141 29.75 21.0391 29.2031 21.5078 28.5C22.0547 27.7969 22.6797 27.2109 23.3828 26.7422C25.7266 26.6641 27.6797 27.4453 29.2422 29.0859C30.8828 30.7266 31.7031 32.7188 31.7031 35.0625C31.7031 36.8594 31.1953 38.5781 30.1797 40.2188C30.4922 41.7031 30.6484 43.4219 30.6484 45.375C30.6484 48.2656 30.4531 51.1562 30.0625 54.0469C29.6719 56.9375 29.5547 59.8672 29.7109 62.8359C29.2422 63.9297 29.0078 65.2578 29.0078 66.8203C29.0859 68.3828 29.0469 69.7109 28.8906 70.8047C28.7344 71.8984 28.5 73.0312 28.1875 74.2031C27.875 75.2969 27.6797 76.3906 27.6016 77.4844C27.5234 79.2812 27.4453 81.0781 27.3672 82.875C27.3672 84.6719 27.1719 86.3906 26.7812 88.0312C26.625 88.6562 26.3906 89.2031 26.0781 89.6719C25.8438 90.0625 25.6484 90.5312 25.4922 91.0781C25.1797 92.7188 25.0625 94.3984 25.1406 96.1172C25.2969 97.7578 25.2969 99.4375 25.1406 101.156C25.0625 101.703 24.9062 102.25 24.6719 102.797C24.5156 103.344 24.4375 103.93 24.4375 104.555C24.4375 104.867 24.5156 105.258 24.6719 105.727C31.7812 105.102 38.8516 104.047 45.8828 102.562C52.9141 101.078 59.9844 99.7891 67.0938 98.6953C67.6406 97.6797 67.9141 96.625 67.9141 95.5312C67.9141 94.9062 67.7969 94.2812 67.5625 93.6562C68.3438 91.0781 68.9297 88.5 69.3203 85.9219C69.7891 83.2656 70.1797 80.6484 70.4922 78.0703C70.8047 75.4922 71.0781 72.9141 71.3125 70.3359C71.5469 67.6797 71.8594 65.0625 72.25 62.4844L72.9531 58.5C73.1875 57.1719 73.5 55.8828 73.8906 54.6328C74.0469 54.1641 74.2031 53.6953 74.3594 53.2266C74.5938 52.7578 74.7109 52.3281 74.7109 51.9375C74.7109 51.5469 74.4766 51.2734 74.0078 51.1172C73.6172 50.9609 73.4219 50.7656 73.4219 50.5312C73.4219 50.375 73.4609 50.2969 73.5391 50.2969C73.6953 50.2188 73.8125 50.2188 73.8906 50.2969C74.2812 49.5938 74.5156 48.8516 74.5938 48.0703C74.6719 47.2891 74.7109 46.5078 74.7109 45.7266C74.7891 44.9453 74.9062 44.2031 75.0625 43.5C75.2188 42.7188 75.5312 42.0156 76 41.3906C75.9219 40.8438 75.7656 40.3359 75.5312 39.8672C75.2969 39.3984 75.1797 38.8516 75.1797 38.2266C75.1016 38.1484 75.1016 38.0703 75.1797 37.9922C75.3359 37.2891 75.4141 36.7031 75.4141 36.2344C75.4922 35.6875 75.5312 35.0625 75.5312 34.3594C75.5312 33.4219 75.9609 32.6797 76.8203 32.1328C76.4297 30.8047 76.1562 29.3594 76 27.7969C75.8438 26.2344 75.7656 24.7109 75.7656 23.2266C75.7656 21.1953 76.2344 19.5156 77.1719 18.1875C78.1875 16.7812 79.8281 16.0781 82.0938 16.0781C83.2656 16.0781 84.3594 16.3125 85.375 16.7812C86.4688 17.25 87.3672 17.9141 88.0703 18.7734C88.4609 20.5703 88.6562 22.25 88.6562 23.8125C88.6562 24.9062 88.5781 25.9609 88.4219 26.9766C88.3438 27.9141 88.3047 28.9297 88.3047 30.0234C88.3047 30.8828 88.3828 31.7031 88.5391 32.4844C88.6953 33.1875 88.8516 33.9297 89.0078 34.7109C88.3047 35.8047 87.7969 37.0156 87.4844 38.3438C87.1719 39.6719 86.9375 41.0391 86.7812 42.4453C86.7031 43.8516 86.625 45.2969 86.5469 46.7812C86.5469 48.1875 86.5078 49.4766 86.4297 50.6484C86.1953 53.2266 85.8047 55.7656 85.2578 58.2656C84.7891 60.7656 84.2422 63.2656 83.6172 65.7656C83.8516 66.625 83.9688 67.4062 83.9688 68.1094C83.9688 69.5156 83.7734 70.9219 83.3828 72.3281C82.9922 73.6562 82.875 74.9844 83.0312 76.3125C82.4844 77.7188 82.1328 79.1641 81.9766 80.6484C81.8203 82.0547 81.7031 83.5391 81.625 85.1016L81.3906 89.6719C81.3125 91.1562 81.0391 92.6016 80.5703 94.0078C80.7266 94.3984 81 94.6328 81.3906 94.7109C81.8594 94.7109 82.0156 95.0234 81.8594 95.6484C83.6562 95.1016 85.5703 94.8672 87.6016 94.9453C89.6328 94.9453 91.5469 94.9453 93.3438 94.9453C94.5156 94.9453 95.6875 94.9453 96.8594 94.9453C98.0312 94.8672 99.2031 94.7109 100.375 94.4766C101.547 94.1641 102.719 93.8125 103.891 93.4219C105.141 92.9531 106.352 92.7188 107.523 92.7188C109.164 92.7188 110.414 93.3047 111.273 94.4766C111.43 95.3359 111.547 96.1953 111.625 97.0547C111.703 97.9141 111.742 98.7734 111.742 99.6328ZM185.102 66.4688V66.9375C184.555 67.0938 184.281 67.4844 184.281 68.1094C183.422 68.5 182.523 68.8125 181.586 69.0469C180.648 69.2031 179.75 69.4766 178.891 69.8672C178.031 69.7891 177.133 69.75 176.195 69.75C175.336 69.6719 174.477 69.6328 173.617 69.6328C171.273 69.6328 168.93 69.7109 166.586 69.8672C164.242 70.0234 161.898 70.0234 159.555 69.8672C158.461 70.4922 157.25 71 155.922 71.3906C154.672 71.7031 153.461 71.8594 152.289 71.8594C151.352 71.8594 150.531 71.7422 149.828 71.5078C147.953 72.4453 145.883 73.2266 143.617 73.8516C141.43 74.4766 139.203 75.1016 136.938 75.7266C134.672 76.2734 132.484 76.9375 130.375 77.7188C128.344 78.4219 126.547 79.4375 124.984 80.7656C124.828 81.8594 124.711 82.9531 124.633 84.0469C124.555 85.0625 124.516 86.0781 124.516 87.0938C124.516 88.1875 124.555 89.2031 124.633 90.1406C124.789 91.0781 125.062 92.0156 125.453 92.9531C125.844 93.1094 126.273 93.2266 126.742 93.3047C127.289 93.3828 127.758 93.4219 128.148 93.4219C128.539 93.4219 128.93 93.3828 129.32 93.3047C129.711 93.1484 129.984 92.875 130.141 92.4844C131.312 92.3281 132.484 92.2891 133.656 92.3672C134.828 92.3672 136 92.3672 137.172 92.3672C138.344 92.3672 139.477 92.3281 140.57 92.25C141.742 92.1719 142.875 91.9766 143.969 91.6641C145.219 91.3516 146.43 91.1562 147.602 91.0781C148.852 91 150.062 90.9219 151.234 90.8438C152.406 90.7656 153.617 90.6484 154.867 90.4922C156.117 90.2578 157.406 89.8281 158.734 89.2031C159.75 89.5938 160.766 89.7891 161.781 89.7891C162.875 89.7891 163.93 89.8672 164.945 90.0234C165.492 90.4141 165.922 90.8438 166.234 91.3125C166.625 91.7812 166.82 92.3281 166.82 92.9531C166.82 94.0469 166.43 95.1406 165.648 96.2344C164.867 97.3281 164.242 98.3438 163.773 99.2812H162.484C160.609 99.2812 158.773 99.5547 156.977 100.102C155.258 100.57 153.5 101.156 151.703 101.859C149.984 102.484 148.227 103.07 146.43 103.617C144.711 104.086 142.914 104.32 141.039 104.32C140.727 104.32 140.531 104.516 140.453 104.906C140.453 105.219 140.375 105.453 140.219 105.609C139.828 105.531 139.242 105.492 138.461 105.492C136.664 105.492 134.945 105.688 133.305 106.078C131.664 106.469 129.984 106.664 128.266 106.664C127.797 106.664 127.328 106.664 126.859 106.664C126.391 106.586 125.922 106.508 125.453 106.43C125.062 107.055 124.555 107.484 123.93 107.719C123.305 107.875 122.719 108.188 122.172 108.656C121.938 109.359 121.781 110.219 121.703 111.234C121.703 112.25 121.664 113.305 121.586 114.398C121.586 115.414 121.508 116.391 121.352 117.328C121.195 118.266 120.883 119.008 120.414 119.555C120.492 119.945 120.805 120.102 121.352 120.023C121.898 119.867 122.172 120.102 122.172 120.727C122.172 121.43 122.094 122.172 121.938 122.953C121.781 123.734 121.703 124.516 121.703 125.297C121.703 126.781 121.859 128.422 122.172 130.219C122.562 131.938 123.109 133.539 123.812 135.023C124.594 136.508 125.609 137.758 126.859 138.773C128.109 139.711 129.672 140.18 131.547 140.18C132.797 140.18 133.969 139.945 135.062 139.477C136.156 139.008 137.055 138.227 137.758 137.133L138.344 137.016C138.656 137.016 138.93 137.055 139.164 137.133C139.477 137.211 139.789 137.25 140.102 137.25C140.57 137.25 141.156 136.977 141.859 136.43C142.641 135.805 143.461 135.102 144.32 134.32C145.258 133.539 146.195 132.797 147.133 132.094C148.07 131.312 148.969 130.766 149.828 130.453C150.375 129.359 150.883 128.266 151.352 127.172C151.898 126.078 152.68 125.219 153.695 124.594V121.195C154.477 120.336 155.297 119.555 156.156 118.852C157.094 118.148 157.797 117.25 158.266 116.156C158.656 116.312 159.008 116.43 159.32 116.508C159.711 116.586 160.102 116.625 160.492 116.625C160.883 116.625 161.273 116.586 161.664 116.508C162.133 116.43 162.562 116.312 162.953 116.156C163.578 117.016 164.047 117.992 164.359 119.086C164.75 120.102 165.219 121.078 165.766 122.016C165.062 123.422 164.242 125.102 163.305 127.055C162.367 129.008 161.352 130.961 160.258 132.914C159.164 134.867 157.992 136.742 156.742 138.539C155.57 140.258 154.398 141.586 153.227 142.523C152.992 142.758 152.484 143.031 151.703 143.344C150.844 143.969 150.062 144.555 149.359 145.102C148.656 145.727 147.992 146.43 147.367 147.211C145.102 147.914 142.914 148.852 140.805 150.023C138.773 151.195 136.742 152.328 134.711 153.422C133.773 153.188 132.758 153.07 131.664 153.07C130.727 153.07 129.789 153.109 128.852 153.188C127.914 153.344 126.898 153.422 125.805 153.422C125.492 153.031 125.023 152.758 124.398 152.602C123.852 152.523 123.656 152.133 123.812 151.43C121.156 151.273 119.008 150.531 117.367 149.203C115.727 147.953 114.32 146.391 113.148 144.516C112.055 142.641 111.156 140.609 110.453 138.422C109.75 136.234 109.008 134.125 108.227 132.094V131.742C108.227 131.352 108.383 131.117 108.695 131.039C109.008 130.961 109.164 130.727 109.164 130.336C109.164 130.18 109.125 130.062 109.047 129.984C108.812 129.125 108.617 128.383 108.461 127.758C108.305 127.133 108.227 126.391 108.227 125.531C108.227 124.281 108.305 123.07 108.461 121.898C108.617 120.648 108.695 119.398 108.695 118.148C108.695 116.898 108.539 115.805 108.227 114.867C108.539 114.477 108.812 113.969 109.047 113.344C109.203 112.641 109.32 111.938 109.398 111.234C109.477 110.531 109.516 109.828 109.516 109.125C109.594 108.422 109.711 107.797 109.867 107.25C109.555 106.391 109.281 105.648 109.047 105.023C108.812 104.32 108.695 103.5 108.695 102.562V101.742C109.477 100.414 110.141 99.0469 110.688 97.6406C111.234 96.2344 111.82 94.7891 112.445 93.3047V92.9531C112.445 90.6875 112.367 88.4219 112.211 86.1562C112.055 83.8906 111.977 81.625 111.977 79.3594V77.1328C111.977 76.3516 112.016 75.6094 112.094 74.9062C112.719 74.5938 113.188 74.1641 113.5 73.6172C113.812 73.0703 114.281 72.6406 114.906 72.3281H118.773L119.477 71.1562C119.711 70.7656 119.867 70.3359 119.945 69.8672C120.805 69.6328 121.625 69.3203 122.406 68.9297C123.266 68.4609 124.047 67.9922 124.75 67.5234C125.844 66.8984 126.82 66.3516 127.68 65.8828C128.617 65.3359 129.516 64.9062 130.375 64.5938C131.312 64.2031 132.289 63.8906 133.305 63.6562C134.32 63.4219 135.492 63.2266 136.82 63.0703C137.445 63.0703 137.836 62.9531 137.992 62.7188C138.227 62.4844 138.539 62.2109 138.93 61.8984C139.867 62.0547 140.805 62.2109 141.742 62.3672C142.68 62.4453 143.617 62.4844 144.555 62.4844C146.43 62.4844 148.188 62.1328 149.828 61.4297C152.172 61.4297 154.477 61.3906 156.742 61.3125C159.086 61.2344 161.43 61.1953 163.773 61.1953C165.805 61.1953 167.836 61.2734 169.867 61.4297C171.898 61.5859 173.891 61.8594 175.844 62.25C176.547 62.0156 177.328 61.8984 178.188 61.8984C179.125 61.8984 180.062 62.0156 181 62.25C182.016 62.4062 182.992 62.4062 183.93 62.25C184.008 63.1094 184.203 63.8516 184.516 64.4766C184.906 65.0234 185.102 65.6875 185.102 66.4688ZM241.469 60.375C241.469 61.0781 241.156 61.6641 240.531 62.1328C239.984 62.6016 239.711 62.9531 239.711 63.1875C239.711 63.6562 239.789 64.0078 239.945 64.2422C240.102 64.3984 240.18 64.5938 240.18 64.8281V65.4141C239.398 66.1953 238.812 67.0547 238.422 67.9922C238.031 68.8516 237.719 69.7891 237.484 70.8047C237.25 71.7422 237.016 72.7188 236.781 73.7344C236.625 74.75 236.391 75.7266 236.078 76.6641C235.688 77.6016 235.18 78.4219 234.555 79.125C233.93 79.75 233.422 80.4922 233.031 81.3516C232.406 82.7578 231.938 84.2031 231.625 85.6875C231.312 87.1719 230.648 88.5391 229.633 89.7891V90.375C229.555 90.9219 229.711 91.3906 230.102 91.7812C228.617 93.7344 227.445 96.0781 226.586 98.8125C225.727 101.469 225.023 104.281 224.477 107.25C223.93 110.141 223.461 113.07 223.07 116.039C222.68 118.93 222.211 121.547 221.664 123.891C222.055 125.609 222.641 127.25 223.422 128.812C224.281 130.297 225.102 131.859 225.883 133.5C227.445 133.891 228.93 134.438 230.336 135.141C231.82 135.844 232.875 136.977 233.5 138.539C233.344 140.102 232.836 141.312 231.977 142.172C231.117 143.031 230.062 143.93 228.812 144.867C227.953 144.555 227.25 144.281 226.703 144.047C226.156 143.891 225.336 143.891 224.242 144.047C222.758 142.875 221.352 141.938 220.023 141.234C218.773 140.531 217.641 139.32 216.625 137.602C216.469 137.367 216.234 137.25 215.922 137.25H214.867C214.477 136.312 214.008 135.336 213.461 134.32C212.914 133.227 212.367 132.133 211.82 131.039C211.273 129.867 210.805 128.734 210.414 127.641C210.023 126.469 209.828 125.414 209.828 124.477C209.828 120.492 210.18 116.547 210.883 112.641C211.664 108.656 212.055 104.633 212.055 100.57V99.3984C210.492 99.7891 208.93 100.336 207.367 101.039C205.883 101.742 204.359 102.289 202.797 102.68C202.25 102.836 201.938 103.109 201.859 103.5C201.781 103.891 201.547 104.203 201.156 104.438C200.375 104.516 199.633 104.594 198.93 104.672C198.227 104.672 197.562 104.672 196.938 104.672C195.609 104.672 194.203 104.633 192.719 104.555C191.312 104.398 189.906 104.125 188.5 103.734C187.094 103.344 185.766 102.797 184.516 102.094C183.344 101.391 182.289 100.492 181.352 99.3984C181.195 99.4766 181 99.5547 180.766 99.6328C180.531 99.7109 180.297 99.75 180.062 99.75C179.828 99.75 179.594 99.7109 179.359 99.6328C179.125 99.5547 178.93 99.4766 178.773 99.3984C178.148 98.5391 177.641 97.6016 177.25 96.5859L176.078 93.5391C175.688 92.5234 175.258 91.5469 174.789 90.6094C174.32 89.6719 173.695 88.8125 172.914 88.0312C172.68 86.625 172.562 85.2578 172.562 83.9297C172.562 82.5234 172.68 81.1562 172.914 79.8281C173.07 78.5 173.344 77.1719 173.734 75.8438C173.422 74.9062 173.227 73.9297 173.148 72.9141C172.992 71.8984 172.914 70.8828 172.914 69.8672C172.914 68.6953 173.031 67.4844 173.266 66.2344C173.5 64.9844 173.891 63.8516 174.438 62.8359C174.984 61.7422 175.766 60.8438 176.781 60.1406C177.719 59.4375 178.891 59.0859 180.297 59.0859C181.859 59.0859 183.305 59.5156 184.633 60.375C185.961 61.1562 187.25 61.9766 188.5 62.8359C188.656 63.7734 188.773 64.7109 188.852 65.6484C188.93 66.5078 188.969 67.4453 188.969 68.4609C188.969 70.3359 188.852 72.25 188.617 74.2031C188.461 76.0781 188.383 77.9922 188.383 79.9453C188.383 81.9766 188.617 83.8906 189.086 85.6875C189.633 87.4062 190.57 89.0469 191.898 90.6094H192.367C192.992 90.5312 193.539 90.6484 194.008 90.9609C194.477 91.2734 195.023 91.4297 195.648 91.4297C196.195 91.4297 196.625 91.2344 196.938 90.8438C197.25 90.375 197.641 90.1406 198.109 90.1406C198.578 90.1406 198.93 90.2188 199.164 90.375C199.398 90.5312 199.594 90.6094 199.75 90.6094C200.609 90.6094 201.586 90.2969 202.68 89.6719C203.773 89.0469 204.477 88.3438 204.789 87.5625C205.102 87.7969 205.492 87.9141 205.961 87.9141C206.586 87.9141 207.172 87.7188 207.719 87.3281C208.266 86.9375 208.969 86.7422 209.828 86.7422C210.297 86.7422 210.453 86.4688 210.297 85.9219C210.219 85.2969 210.375 84.9062 210.766 84.75C211.703 84.3594 212.719 83.8125 213.812 83.1094C214.984 82.3281 215.922 81.8594 216.625 81.7031C217.016 80.6875 217.484 79.75 218.031 78.8906C218.656 77.9531 219.281 77.0938 219.906 76.3125C220.141 74.5156 220.609 72.7969 221.312 71.1562C222.016 69.5156 222.758 67.875 223.539 66.2344C224.32 64.5938 225.062 62.9531 225.766 61.3125C226.469 59.6719 226.938 57.9531 227.172 56.1562C228.031 55.2969 228.695 54.3594 229.164 53.3438C229.711 52.3281 230.18 51.3125 230.57 50.2969C231.352 50.0625 232.328 49.9453 233.5 49.9453C234.672 49.8672 235.688 49.8281 236.547 49.8281H238.539C238.773 50.2969 239.086 50.7266 239.477 51.1172L240.648 52.2891C239.945 53.3828 239.594 54.4766 239.594 55.5703C239.594 56.4297 239.789 57.2891 240.18 58.1484C240.57 58.9297 241 59.6719 241.469 60.375ZM272.875 42.7969C272.875 44.4375 272.758 46.1172 272.523 47.8359C272.289 49.4766 272.172 51.0781 272.172 52.6406V54.2812C272.172 54.75 272.25 55.2188 272.406 55.6875C271.625 58.7344 271.039 61.8203 270.648 64.9453C270.258 67.9922 269.75 71.1172 269.125 74.3203C268.734 76.4297 268.266 78.5391 267.719 80.6484C267.562 81.1953 267.367 81.7422 267.133 82.2891C266.977 82.8359 266.82 83.3828 266.664 83.9297C266.508 84.5547 266.352 85.2188 266.195 85.9219C266.117 86.625 266 87.2891 265.844 87.9141C265.453 89.2422 265.062 90.5703 264.672 91.8984C264.281 93.1484 263.891 94.4375 263.5 95.7656C262.797 98.1094 262.016 100.453 261.156 102.797C260.375 105.141 259.633 107.484 258.93 109.828C258.227 112.172 257.641 114.555 257.172 116.977C256.703 119.398 256.469 121.82 256.469 124.242C256.469 124.633 256.664 125.023 257.055 125.414C257.523 125.727 258.031 126.039 258.578 126.352C259.125 126.664 259.672 126.977 260.219 127.289C260.844 127.523 261.273 127.758 261.508 127.992V129.047C261.508 130.219 261.273 131.156 260.805 131.859C260.336 132.484 259.789 133.031 259.164 133.5C258.539 133.969 257.875 134.438 257.172 134.906C256.547 135.375 256.039 136 255.648 136.781C255.414 136.703 255.141 136.625 254.828 136.547C254.516 136.469 254.203 136.43 253.891 136.43C253.109 136.43 252.328 136.625 251.547 137.016C250.844 137.406 250.062 137.602 249.203 137.602C248.344 137.602 247.641 137.25 247.094 136.547C246.547 135.766 245.883 135.18 245.102 134.789C245.023 132.758 244.672 130.805 244.047 128.93C243.5 126.977 243.227 124.984 243.227 122.953C243.227 121.312 243.344 120.141 243.578 119.438C243.891 118.734 244.398 117.68 245.102 116.273C245.102 116.039 245.062 115.805 244.984 115.57C244.984 115.336 244.984 115.102 244.984 114.867C244.984 113.695 245.141 112.602 245.453 111.586C245.844 110.492 246 109.359 245.922 108.188C246.859 106.469 247.602 104.633 248.148 102.68C248.773 100.727 249.359 98.7734 249.906 96.8203C250.453 94.7891 251.039 92.8359 251.664 90.9609C252.289 89.0078 253.148 87.2109 254.242 85.5703C254.32 84.3203 254.555 83.1484 254.945 82.0547C255.336 80.9609 255.531 79.8281 255.531 78.6562C255.531 77.9531 255.414 77.2891 255.18 76.6641C256.039 75.6484 256.547 74.3203 256.703 72.6797C256.859 71.0391 256.898 69.5547 256.82 68.2266C257.211 67.3672 257.484 66.5078 257.641 65.6484C257.875 64.7109 258.148 63.7734 258.461 62.8359C258.461 62.5234 258.422 62.2109 258.344 61.8984C258.344 61.5859 258.344 61.2734 258.344 60.9609C258.344 59.1641 258.539 57.4062 258.93 55.6875C259.398 53.9688 259.633 52.2109 259.633 50.4141C259.633 48.0703 258.969 46.1953 257.641 44.7891C257.562 44.4766 257.523 44.1641 257.523 43.8516V42.7969C257.523 41.3906 257.758 40.0625 258.227 38.8125C258.773 37.4844 259.008 36.1172 258.93 34.7109C259.711 34.3203 260.453 33.9688 261.156 33.6562C261.938 33.3438 262.758 33.1875 263.617 33.1875C265.492 33.1875 267.133 33.8516 268.539 35.1797C269.945 36.5078 271.234 37.7578 272.406 38.9297C272.719 40.1016 272.875 41.3906 272.875 42.7969ZM265.375 172.875C265.375 173.266 265.336 173.617 265.258 173.93C265.18 174.32 265.062 174.711 264.906 175.102C263.812 175.492 262.719 175.766 261.625 175.922C260.609 176.156 259.555 176.43 258.461 176.742C257.836 177.445 257.25 178.188 256.703 178.969C256.234 179.828 255.414 180.375 254.242 180.609C252.602 180.062 251.273 179.047 250.258 177.562C249.32 176.078 248.852 174.438 248.852 172.641C248.852 171.078 249.125 169.867 249.672 169.008C250.219 168.227 250.844 167.562 251.547 167.016C252.25 166.547 252.875 166.039 253.422 165.492C253.969 164.945 254.242 164.203 254.242 163.266C254.633 163.188 255.102 163.148 255.648 163.148C256.742 163.148 257.602 163.539 258.227 164.32C258.852 165.18 259.516 165.961 260.219 166.664C260.688 167.133 261.195 167.562 261.742 167.953C262.367 168.422 262.914 168.891 263.383 169.359C263.93 169.906 264.398 170.453 264.789 171C265.18 171.547 265.375 172.172 265.375 172.875Z" fill="black"/>
<path d="M436.68 56C435.613 56 434.84 55.76 434.36 55.28C433.933 54.8 433.72 54.08 433.72 53.12V4.56C433.72 3.54666 433.933 2.8 434.36 2.32C434.84 1.84 435.613 1.6 436.68 1.6H440.92C441.987 1.6 442.76 1.84 443.24 2.32C443.72 2.8 443.96 3.54666 443.96 4.56V53.12C443.96 54.08 443.72 54.8 443.24 55.28C442.813 55.76 442.04 56 440.92 56H436.68ZM453.248 18C452.288 18 451.808 17.6267 451.808 16.88C451.808 16.72 451.861 16.4267 451.968 16L456.208 2.48C456.474 1.62666 456.794 1.06666 457.168 0.799995C457.541 0.533329 458.181 0.399996 459.088 0.399996H463.248C464.581 0.399996 465.248 0.799997 465.248 1.6C465.248 1.92 465.114 2.4 464.848 3.04L459.088 16.64C458.874 17.12 458.581 17.4667 458.208 17.68C457.888 17.8933 457.408 18 456.768 18H453.248ZM507.227 56C506.16 56 505.387 55.76 504.907 55.28C504.48 54.8 504.267 54.08 504.267 53.12V4.56C504.267 3.54666 504.48 2.8 504.907 2.32C505.387 1.84 506.187 1.6 507.307 1.6H511.627C512.48 1.6 513.12 1.70666 513.547 1.92C514.027 2.13333 514.4 2.56 514.667 3.2L530.827 40.4L546.987 3.2C547.254 2.56 547.6 2.13333 548.027 1.92C548.507 1.70666 549.174 1.6 550.027 1.6H554.347C555.467 1.6 556.24 1.84 556.667 2.32C557.147 2.8 557.387 3.54666 557.387 4.56V53.12C557.387 54.08 557.147 54.8 556.667 55.28C556.24 55.76 555.494 56 554.427 56H550.907C549.84 56 549.067 55.76 548.587 55.28C548.107 54.8 547.867 54.08 547.867 53.12V18.64L534.187 49.12C533.76 49.9733 533.334 50.5867 532.907 50.96C532.48 51.3333 531.787 51.52 530.827 51.52C529.867 51.52 529.147 51.3333 528.667 50.96C528.24 50.5867 527.84 49.9733 527.467 49.12L513.787 18.64V53.12C513.787 54.08 513.547 54.8 513.067 55.28C512.64 55.76 511.867 56 510.747 56H507.227ZM600.977 56C599.91 56 599.137 55.76 598.657 55.28C598.23 54.8 598.017 54.08 598.017 53.12V4.56C598.017 3.54666 598.23 2.8 598.657 2.32C599.137 1.84 599.91 1.6 600.977 1.6H616.977C625.99 1.6 632.87 3.76 637.617 8.08C642.417 12.4 644.817 19.3067 644.817 28.8C644.817 46.9333 635.537 56 616.977 56H600.977ZM617.617 48.24C623.27 48.24 627.51 46.7733 630.337 43.84C633.217 40.9067 634.657 35.8933 634.657 28.8C634.657 21.7067 633.217 16.72 630.337 13.84C627.51 10.9067 623.27 9.44 617.617 9.44H608.257V48.24H617.617ZM655.586 56C654.52 56 653.746 55.76 653.266 55.28C652.84 54.8 652.626 54.08 652.626 53.12V4.56C652.626 3.54666 652.84 2.8 653.266 2.32C653.746 1.84 654.52 1.6 655.586 1.6H688.866C689.933 1.6 690.653 1.81333 691.026 2.24C691.453 2.66666 691.666 3.38666 691.666 4.4V6.56C691.666 7.57333 691.453 8.32 691.026 8.8C690.653 9.22666 689.933 9.44 688.866 9.44H662.866V24.96H681.746C682.813 24.96 683.56 25.1733 683.986 25.6C684.413 26.0267 684.626 26.7467 684.626 27.76V29.76C684.626 30.7733 684.413 31.52 683.986 32C683.56 32.4267 682.813 32.64 681.746 32.64H662.866V48.24H688.786C689.853 48.24 690.6 48.48 691.026 48.96C691.453 49.3867 691.666 50.1067 691.666 51.12V53.28C691.666 54.24 691.453 54.9333 691.026 55.36C690.6 55.7867 689.853 56 688.786 56H655.586ZM701.68 56C700.613 56 699.84 55.76 699.36 55.28C698.933 54.8 698.72 54.08 698.72 53.12V4.56C698.72 3.54666 698.933 2.8 699.36 2.32C699.84 1.84 700.613 1.6 701.68 1.6H734.96C736.027 1.6 736.747 1.81333 737.12 2.24C737.547 2.66666 737.76 3.38666 737.76 4.4V6.56C737.76 7.57333 737.547 8.32 737.12 8.8C736.747 9.22666 736.027 9.44 734.96 9.44H708.96V24.96H727.84C728.907 24.96 729.653 25.1733 730.08 25.6C730.507 26.0267 730.72 26.7467 730.72 27.76V29.76C730.72 30.7733 730.507 31.52 730.08 32C729.653 32.4267 728.907 32.64 727.84 32.64H708.96V48.24H734.88C735.947 48.24 736.693 48.48 737.12 48.96C737.547 49.3867 737.76 50.1067 737.76 51.12V53.28C737.76 54.24 737.547 54.9333 737.12 55.36C736.693 55.7867 735.947 56 734.88 56H701.68ZM747.774 56C746.707 56 745.934 55.76 745.454 55.28C745.027 54.8 744.814 54.08 744.814 53.12V4.56C744.814 3.54666 745.027 2.8 745.454 2.32C745.934 1.84 746.707 1.6 747.774 1.6H768.254C774.814 1.6 779.667 3.17333 782.814 6.32C786.014 9.41333 787.614 13.8667 787.614 19.68C787.614 25.44 786.014 29.8667 782.814 32.96C779.667 36.0533 774.814 37.6 768.254 37.6H755.054V53.12C755.054 54.08 754.814 54.8 754.334 55.28C753.907 55.76 753.134 56 752.014 56H747.774ZM767.774 29.84C771.027 29.84 773.454 29.0133 775.054 27.36C776.654 25.6533 777.454 23.0933 777.454 19.68C777.454 16.2133 776.654 13.6533 775.054 12C773.454 10.2933 771.027 9.44 767.774 9.44H755.054V29.84H767.774ZM785.668 56C784.761 56 784.308 55.6 784.308 54.8C784.308 54.48 784.388 54.1333 784.548 53.76L805.668 3.68C805.988 2.88 806.334 2.34666 806.708 2.08C807.081 1.76 807.614 1.6 808.308 1.6H812.708C813.454 1.6 813.988 1.76 814.308 2.08C814.681 2.34666 815.028 2.88 815.348 3.68L836.468 53.76C836.628 54.1333 836.708 54.48 836.708 54.8C836.708 55.6 836.254 56 835.348 56H828.388C827.694 56 827.188 55.92 826.868 55.76C826.601 55.5467 826.334 55.1467 826.068 54.56L821.508 43.36H799.428L794.948 54.56C794.681 55.1467 794.388 55.5467 794.068 55.76C793.801 55.92 793.321 56 792.628 56H785.668ZM818.948 35.92L810.468 14.96L801.988 35.92H818.948ZM847.539 56C846.473 56 845.699 55.76 845.219 55.28C844.793 54.8 844.579 54.08 844.579 53.12V4.56C844.579 3.54666 844.793 2.8 845.219 2.32C845.699 1.84 846.499 1.6 847.619 1.6H851.299C852.046 1.6 852.633 1.70666 853.059 1.92C853.486 2.13333 853.913 2.56 854.339 3.2L880.739 39.84V4.56C880.739 3.54666 880.953 2.8 881.379 2.32C881.859 1.84 882.633 1.6 883.699 1.6H887.939C889.006 1.6 889.779 1.84 890.259 2.32C890.739 2.8 890.979 3.54666 890.979 4.56V53.12C890.979 54.08 890.739 54.8 890.259 55.28C889.833 55.76 889.059 56 887.939 56H884.179C883.433 56 882.873 55.92 882.499 55.76C882.126 55.5467 881.699 55.12 881.219 54.48L854.819 17.92V53.12C854.819 54.08 854.579 54.8 854.099 55.28C853.673 55.76 852.899 56 851.779 56H847.539ZM919.879 57.2C916.092 57.2 912.359 56.8 908.679 56C905.052 55.1467 902.145 53.9733 899.959 52.48C899.265 52 898.919 51.5733 898.919 51.2C898.919 50.8267 899.025 50.5067 899.239 50.24L901.879 46.08C902.199 45.6 902.492 45.36 902.759 45.36C903.025 45.36 903.372 45.4933 903.799 45.76C905.772 46.9333 908.065 47.8933 910.679 48.64C913.292 49.3333 915.932 49.68 918.599 49.68C922.225 49.68 924.945 49.0933 926.759 47.92C928.625 46.6933 929.559 44.7467 929.559 42.08C929.559 40.48 929.212 39.2 928.519 38.24C927.825 37.28 926.812 36.4533 925.479 35.76C924.145 35.0667 921.985 34.1333 918.999 32.96L917.159 32.24C913.692 30.8533 910.812 29.52 908.519 28.24C906.279 26.96 904.412 25.28 902.919 23.2C901.425 21.12 900.679 18.5867 900.679 15.6C900.679 10.7467 902.519 7.01333 906.199 4.4C909.932 1.73333 914.812 0.399996 920.839 0.399996C924.519 0.399996 927.692 0.746663 930.359 1.44C933.079 2.13333 935.425 3.2 937.399 4.64C938.039 5.12 938.359 5.57333 938.359 6C938.359 6.32 938.252 6.61333 938.039 6.88L935.479 11.04C935.159 11.52 934.892 11.76 934.679 11.76C934.465 11.76 934.119 11.6 933.639 11.28C930.225 9.09333 925.985 8 920.919 8C917.559 8 915.025 8.61333 913.319 9.84C911.612 11.0667 910.759 13.0133 910.759 15.68C910.759 17.3333 911.105 18.6667 911.799 19.68C912.545 20.64 913.612 21.4667 914.999 22.16C916.385 22.8533 918.625 23.7867 921.719 24.96L923.719 25.76C927.612 27.3067 930.652 28.7467 932.839 30.08C935.025 31.36 936.705 32.9867 937.879 34.96C939.105 36.88 939.719 39.36 939.719 42.4C939.719 46.9867 937.985 50.6133 934.519 53.28C931.105 55.8933 926.225 57.2 919.879 57.2ZM950.508 56C949.441 56 948.668 55.76 948.188 55.28C947.761 54.8 947.548 54.08 947.548 53.12V4.56C947.548 3.54666 947.761 2.8 948.188 2.32C948.668 1.84 949.441 1.6 950.508 1.6H954.748C955.815 1.6 956.588 1.84 957.068 2.32C957.548 2.8 957.788 3.54666 957.788 4.56V24.72H984.028V4.56C984.028 3.54666 984.268 2.8 984.748 2.32C985.228 1.84 986.001 1.6 987.068 1.6H991.228C992.295 1.6 993.068 1.84 993.548 2.32C994.028 2.8 994.268 3.54666 994.268 4.56V53.12C994.268 54.08 994.028 54.8 993.548 55.28C993.121 55.76 992.348 56 991.228 56H987.068C986.001 56 985.228 55.76 984.748 55.28C984.268 54.8 984.028 54.08 984.028 53.12V32.48H957.788V53.12C957.788 54.08 957.548 54.8 957.068 55.28C956.641 55.76 955.868 56 954.748 56H950.508ZM1027.64 57.2C1022.84 57.2 1018.6 56.4 1014.92 54.8C1011.24 53.1467 1008.39 50.7733 1006.36 47.68C1004.33 44.5867 1003.32 40.96 1003.32 36.8V4.56C1003.32 3.54666 1003.53 2.8 1003.96 2.32C1004.44 1.84 1005.21 1.6 1006.28 1.6H1010.52C1011.59 1.6 1012.36 1.84 1012.84 2.32C1013.32 2.8 1013.56 3.54666 1013.56 4.56V37.04C1013.56 41.2 1014.76 44.3467 1017.16 46.48C1019.61 48.6133 1023.11 49.68 1027.64 49.68C1032.12 49.68 1035.56 48.6133 1037.96 46.48C1040.41 44.3467 1041.64 41.2 1041.64 37.04V4.56C1041.64 3.54666 1041.88 2.8 1042.36 2.32C1042.84 1.84 1043.61 1.6 1044.68 1.6H1048.84C1050.92 1.6 1051.96 2.58667 1051.96 4.56V36.8C1051.96 40.96 1050.92 44.5867 1048.84 47.68C1046.81 50.72 1043.96 53.0667 1040.28 54.72C1036.6 56.3733 1032.39 57.2 1027.64 57.2Z" fill="black"/>
</svg>
