<svg width="11" height="3" viewBox="0 0 11 3" fill="none" xmlns="http://www.w3.org/2000/svg">
<path d="M7.84806 0.878977C8.58487 1.12883 9.33828 1.21933 10.117 1.2414C10.1316 1.10577 10.3312 1.27104 10.3987 1.3012C10.553 1.37011 10.5736 1.49096 10.5698 1.63947C10.5671 1.74492 10.4841 1.86065 10.4083 1.9314C10.2555 2.07421 10.0026 2.20186 9.80116 2.26484C9.584 2.33273 9.36428 2.36722 9.14039 2.40237L9.13573 2.4031C8.89637 2.44068 8.6557 2.42994 8.41693 2.47877C8.04572 2.55468 7.69236 2.67373 7.31611 2.73151C6.95602 2.78682 6.59381 2.82623 6.23244 2.87285C5.66388 2.9462 5.04682 2.99892 4.47493 2.909C4.08954 2.84841 3.71386 2.80106 3.33464 2.70947C3.08408 2.64896 2.7272 2.64505 2.53856 2.44404C2.49167 2.39407 0.966858 2.48929 0.96756 2.42648C0.96922 2.27803 1.99633 1.98177 2.03635 1.83779C2.07006 1.71654 2.71624 1.62027 2.80396 1.53404C2.95352 1.38702 3.06287 1.28736 3.27974 1.29136C3.47429 1.29495 3.66082 1.33828 3.85746 1.31719C3.99384 1.30257 4.12234 1.24827 4.25683 1.22478C4.5113 1.18034 4.80555 1.24396 5.05609 1.27712C5.24641 1.30231 5.41844 1.32781 5.60187 1.38707C5.79473 1.44939 6.00532 1.47368 6.2011 1.40927C6.51389 1.30637 6.6884 0.99223 6.9583 0.814778C7.21694 0.644722 7.5857 0.790011 7.84806 0.878977Z" fill="#B19AF4"/>
</svg>
